<svg viewBox="0 0 160 192" fill="none" xmlns="http://www.w3.org/2000/svg"><g clip-path="url(#prefix__clip0_1288_1252)"><path d="M.127 43.899c-.99-6.773 3.919-13.036 10.965-13.988l102.06-13.789c7.045-.952 13.56 3.767 14.55 10.54l20.171 137.973c.99 6.774-3.919 13.036-10.965 13.988l-97.807 13.214c-9.395 1.27-18.08-5.023-19.4-14.053L.126 43.899z" fill="url(#prefix__paint0_linear_1288_1252)"/><path d="M10.138 30.573c-1.073-7.694 4.245-14.808 11.877-15.89L124.678.14c7.632-1.082 14.689 4.28 15.762 11.973l19.422 139.315c1.073 7.694-4.245 14.808-11.877 15.89L45.322 181.861c-7.632 1.082-14.69-4.279-15.762-11.973L10.138 30.573z" fill="url(#prefix__paint1_linear_1288_1252)"/><path d="M19.098 33.742c-.763-5.467 3.02-10.521 8.45-11.29L121.947 9.1c5.43-.769 10.451 3.04 11.215 8.506l18.241 130.653c.763 5.467-3.02 10.521-8.451 11.289l-94.397 13.354c-5.43.769-10.451-3.04-11.215-8.506L19.098 33.742z" fill="#fff"/><path d="M80.7 48.2c0 .6-.3.9-.5 1.1-1 1.2-1 2.5-.4 3.8.4.8.9 1.6 1.4 2.2 2.2 2.7 5.3 3.5 8.4 4 2 .3 4 .2 6 0 .3 0 .9-.3.9.6C93.4 62.5 90 64.5 86 66c.9.8 1.7 1.4 2.4 2 .5.4.9.4 1.3 0 1.4-1.3 2.8-2.5 4.2-3.8.3-.3.6-.6.6-1.2 0-1.2.6-1.5 1.5-.8 3.3 2.5 6.2 5.5 8 9.4 2 4.3 1 7.5-3 9.6-4.7 2.5-9.7 3.7-15 3.4-3.3-.2-6.6-.8-9.6-2.7-3.7-2.3-6.9-5.3-10.4-7.8-4.2-3-8.2-6.3-12.3-9.4-.6-.5-1.2-1-1.9-.6s-.7 1.2-.7 2c0 2 .3 3.9.9 5.8.4 1.1.9 2.1 1.9 2.8 5.9 4.5 11.9 9 17.9 13.5.6.5 1.2.9 1.9 1.2 4.2 1.8 8.5 3 13.1 3.3 7.5.4 14.5-1.5 20.9-5.5 4.1-2.5 5.7-6.3 5.9-11 .2-3.7-1.4-6.9-3.2-9.9-1.7-3-4.2-5.4-6.4-8-1.8-2.1-4.7-3.6-4.1-7.4-1.6.4-3 0-4.5 0-2.9 0-4.4 2.1-3.6 5.1.2.6.7 1.2.5 1.9-1.8.5-3.7.5-4.7-.2-2.3-1.6-4.6-3.3-6.9-5-.9-.6-1-1.3-.5-2.3s1.4-1.8 1.6-3c-1.7-.9-3.2-.3-4.7.3-2.2.8-4.4-.3-5.2-2.7-.6-1.9-.8-3.9-1.1-5.9-.2-1.2-.5-1.3-1.6-.9-1.1.5-2.1 1.3-2.9 2.2-.5.5-1 .6-1.6 0-3.9-2.7-7.4-5.9-11.3-8.6-1.6-1.1-2.5-.9-2.8 1.1-.3 2.3.2 4.5 1.1 6.6.2.4.5.8.9 1.1 3.4 2.6 6.9 5.1 10.1 7.8.5.4 1.1.7 1.8.9.2-4.2.9-8.1 5.1-10.4.6 1.8.6 3.5.9 5.1.8 4.4 4 6.1 7.7 4 .9-.2 1.6-.4 2.5.1z" fill="url(#prefix__paint1_linear_1288_1252)"/><path d="M71 67.5c2.6 1.4 4.7 3.4 7 5.2.8.7 1.6 1.4 2.6 1.9.6.3 1 .9.2 1.4-1.5.9-2.7 2.2-3.9 3.4s-1.1.6-1.9.2c-.7-.5-1.4-.9-2.1-1.5-4-3.1-7.9-6.3-12-9.3-2.8-2.1-5.6-4.2-8.2-6.5-.6-.6-1.2-1.2-1.4-2-.5-1.8-.7-3.6-.8-5.5 0-.7 0-1.4.8-1.8.7-.4 1.2 0 1.8.5 3.8 3 7.4 6.1 11.4 8.8 2.2 1.5 3.7 3.1 4 5.9 0 .2 0 .4.2.6.2.4.3 1 .9 1s.6-.5.8-.8c.1-.6.1-1.1.6-1.5zM66.4 61.9c-1.2-.5-1.9-1-2.5-1.6-3.7-2.9-7.5-5.8-11.2-8.7-1-.8-2.2-1.4-2.5-2.9-.4-2.1-.3-4.1.5-6 .3-.9 1-1 1.7-.6.4.3.9.5 1.3.9l8.7 6.6c1.5 1.2 2.9 2.3 3.7 4.2.5 1.2 1.5 2 2.4 2.9s.8 1.5-.4 2c-.6.2-1.2.3-1.8.4-1.4.4-1.5.8-.6 2 .2.2.3.4.7.8zM88.3 69.3c-1.9 1.7-3.6 3.3-5.3 4.8-.5.5-.9 0-1.3-.2-2.5-1.7-4.9-3.6-7.2-5.5-.6-.5-1.2-1-1.9-1.3-1.4-.7-1.6-1.2-1.1-2.5.4-1.2 1.6-1.8 2.7-1.4.6.2 1.1.5 1.6.9 2 1.5 4.1 2.2 6.5 2.1 2.6-.2 4 1.6 6 3.1zM59.1 113.9c.5 0 1.1-.2 1.7-.3l.2 1.2c-.7 0-1.4 0-2.2.2l.5 3.5c.6 0 1.2-.2 1.9-.3l.2 1.2c-.7 0-1.3 0-1.9.2l.5 3.9c.7-.3 1.4-.6 2.2-.9v1.2c-1.4.5-2.5 1-3.3 1.4s-1.4.8-1.8 1c-.2-.6-.5-1.1-.7-1.5.7-.2 1.5-.4 2.5-.8l-.6-4.2c-.7 0-1.3.2-2 .3l-.2-1.2c.6 0 1.3 0 2-.2l-.5-3.5c-.8 0-1.5.2-2.1.3l-.2-1.2h1.5l2.2-.2zm7.4 3.4v3.3l1.3-.2c0 .4 0 1 .2 1.7l.3 2.1c0 .6.2 1 .5 1h.8c.3 0 .5-.2.6-.5s0-.8 0-1.5c.5.2 1 .3 1.5.3 0 .9-.2 1.6-.4 1.9-.2.3-.6.6-1.3.8l-1.3.2c-.9 0-1.5-.2-1.6-1l-.6-4.5c-.2 1.4-.6 2.6-1.2 3.7-.6 1-1.6 2-2.9 3-.3-.3-.7-.6-1.2-.8 1.3-.7 2.2-1.5 2.8-2.2s1-1.7 1.2-2.8c.2-1.1.3-2.2.2-3.3s-.2-2.2-.4-3.4h1.6c-.3.5-.3 1.2-.2 2.3zm2.7-3.3l.6 4.3c0 .8.2 1.5.4 2.1l-1.2.2-1-7.5-4.9.7 1 7.5-1.2.2c0-.7 0-1.5-.3-2.5l-.5-3.5c0-.9-.3-1.8-.4-2.6l7.3-1c0 .7.2 1.4.2 2.1zM74.2 112.5c0-.5-.2-1.1-.3-1.8l1.3-.2c0 .8 0 1.4.2 1.8l.3 2.4c.6 0 1.3-.2 2-.3l.2 1.2c-.8 0-1.5 0-2 .2l.6 4.7c.4-.2 1.1-.6 2-1.2 0 .4 0 .8.2 1.1-.7.4-1.5.9-2.5 1.5-1 .5-1.8 1.1-2.4 1.5-.2-.4-.5-.8-.9-1.2.7-.3 1.6-.7 2.5-1.2l-.7-5.1c-.9 0-1.7.2-2.3.4l-.2-1.2c.7 0 1.5 0 2.3-.2l-.3-2.4zm11.2-3.1v1c-.5.2-1.1.7-1.7 1.4-.6.7-1.5 1.8-2.5 3.1l5.8-.8c0 .3 0 1 .2 2.1l.4 4.9c0 1.1 0 1.8-.4 2.1-.4.3-1.1.6-2.1.8 0-.5-.4-1-.8-1.5.9 0 1.5 0 1.7-.3s.3-.5.3-.9l-.5-5.9-1.2.2c0 1.3 0 2.4-.3 3.3-.2.9-.4 1.7-.8 2.4-.3.7-.7 1.3-1.2 1.8s-1 1.1-1.7 1.6c-.3-.4-.6-.7-1-1 .7-.5 1.3-1 1.8-1.6s.9-1.3 1.2-2c.3-.7.5-1.5.6-2.3s0-1.5 0-2l-1.3.2c0 .7 0 1.3-.3 2-.2.7-.5 1.4-.9 2.1s-1 1.4-1.7 2.1c-.2-.3-.6-.6-1.1-.8.9-.7 1.6-1.6 2.1-2.6.4-1 .7-1.9.6-2.7-.5 0-.8.2-.9.3-.2 0-.4.2-.8.4-.2-.5-.4-.9-.6-1.2.7-.2 1.5-.8 2.4-1.8.8-1 1.6-2 2.3-2.9l-2.5.3c-.9 0-1.8.3-2.6.4l-.2-1.2c.8 0 1.6-.2 2.6-.3l5-.7zM96.6 109.1l3.7-.5c.7 0 1.5-.2 2.4-.4l.2 1.2c-.9 0-1.7.2-2.5.3l-3.8.5v1.6l4.7-.6c0 .8.2 1.6.3 2.6l.8 6.2h.6c.6-.2 1.3-.3 2.1-.4l.2 1.2c-.7 0-1.4 0-2.1.2l-10.5 1.4c-.7 0-1.5.2-2.3.4l-.2-1.2c.9 0 1.6-.2 2.3-.2h.4l-.8-6.3c-.2-1.1-.3-2-.4-2.6l3.7-.5v-1.6l-3.3.5c-.8 0-1.6.2-2.4.4l-.2-1.2c.8 0 1.6-.2 2.4-.3l3.5-.5c0-.5 0-1-.2-1.4h1.7c-.2.3-.3.7-.3 1.3zm3.7 4.4l-.2-1.2-7.1 1 .2 1.2 7.1-1zm.3 2.2l-.2-1.2-7.1 1 .2 1.2 7.1-1zm.3 2.2l-.2-1.2-7.1 1 .2 1.2 7.1-1zm.3 2.2l-.2-1.2-7.1 1 .2 1.2 7.1-1zM107.6 107.6c0-.6-.2-1.2-.3-1.7l1.3-.2v1.4l.3 2.1c.5 0 1 0 1.3-.2l.2 1.2H109l.3 2.6 1.2-.8c0 .3 0 .7.3 1.2-.4.2-.8.5-1.3.8l.7 4.9c0 .7 0 1.1-.4 1.4-.4.2-.9.4-1.6.6 0-.4-.4-.8-.8-1.3.8 0 1.3-.2 1.5-.3.2 0 .3-.4.2-.8l-.5-3.9c-.3 0-.9.6-1.8 1.3l-.7-1.2c.5-.2 1.3-.7 2.3-1.3l-.4-3c-1 0-1.7.3-2.2.4l-.2-1.2c.8 0 1.5 0 2.3-.2l-.4-1.9zm8.1-.9l.3 2.6h1.1c0-.7.3-1.6.5-2.8.4.2.9.3 1.4.5-.3.4-.4.8-.5 1.1 0 .3-.2.6-.3.9h.6c.6-.2 1.2-.3 1.8-.4v1.1c-.5 0-1.1 0-1.6.2l-1.5.2c1 1 2.2 1.8 3.8 2.1-.3.4-.5.9-.5 1.3-.6 0-.9-.3-1.1-.4l.5 3.9c0 .6.2 1.4.4 2.3l-1.2.2v-1l-5.3.7v1l-1.1.2c0-.9-.2-1.6-.2-2.2l-.5-3.8c-.3.3-.6.5-.9.8-.4-.4-.7-.7-1.1-.9 1.5-1.1 2.7-2.3 3.3-3.7-1 0-1.9.3-2.8.4v-1.1c.6 0 1.2 0 1.5-.2h.4c-.4-.8-.9-1.3-1.2-1.6 0 0 .4-.3.9-.7 0 .2.5.6 1.2 1.4-.2.2-.5.4-.9.8l2-.3-.3-2.5c-1.4.2-2.5.5-3.3.7-.2-.4-.5-.8-.7-1.1 1.3 0 2.8-.4 4.4-.8s2.8-.8 3.5-1.1c.3.5.6.9 1.1 1.2-.7.3-2 .6-3.7 1zm3.4 6.1c-1-.6-2-1.4-2.8-2.6 0 .9.3 1.8.4 2.7l-1.3.2c0-.9-.2-1.7-.3-2.7-.5 1-1.3 2.1-2.3 3.3l6.4-.9zm-3.4 2.8l-.2-1.3-2.1.3.2 1.3 2.1-.3zm.3 2.4l-.2-1.3-2.1.3.2 1.3 2.1-.3zm2.9-2.8l-.2-1.3-2.1.3.2 1.3 2.1-.3zm.3 2.4l-.2-1.3-2.1.3.2 1.3 2.1-.3z" fill="url(#prefix__paint1_linear_1288_1252)"/><path transform="rotate(-7.7 90.516 129.985)" fill="url(#prefix__paint1_linear_1288_1252)" d="M50.6 128.9h79.7v2H50.6z"/><path d="M71.93 154.04l-1.8-13 2.6-.4 1.5 10.8 6.6-.9.3 2.2c0 .1-9.2 1.3-9.2 1.3zM84.53 152.34l-1.8-13.1 2.6-.4 1.8 13.1-2.6.4zM94.73 150.94l-6.5-12.5 2.9-.4 4.6 9.3 1.9-10.1 2.8-.4-2.9 13.8-2.8.3zM105.13 149.54l-1.8-13.1 9.7-1.3.3 2.2-7.1 1 .4 2.9 6.6-.9.3 2.2-6.6.9.5 3.6 7.3-1 .3 2.2-9.9 1.3z" fill="url(#prefix__paint1_linear_1288_1252)"/></g><defs><linearGradient id="prefix__paint0_linear_1288_1252" x1=".448" y1="16.413" x2="148.448" y2="191.541" gradientUnits="userSpaceOnUse"><stop stop-color="#508AB7"/><stop offset="1" stop-color="#2D1342"/></linearGradient><linearGradient id="prefix__paint1_linear_1288_1252" x1="11.186" y1="19.154" x2="158.875" y2="162.67" gradientUnits="userSpaceOnUse"><stop stop-color="#49C7FF"/><stop offset="1" stop-color="#BD36FF"/></linearGradient><linearGradient id="prefix__paint2_linear_1288_1252" x1="56.68" y1="114.377" x2="122.209" y2="145.088" gradientUnits="userSpaceOnUse"><stop stop-color="#49C8FF"/><stop offset="1" stop-color="#BE35FF"/></linearGradient><linearGradient id="prefix__paint3_linear_1288_1252" x1="61.766" y1="117.538" x2="121.328" y2="133.876" gradientUnits="userSpaceOnUse"><stop stop-color="#4BC7FF"/><stop offset="1" stop-color="#B93DFF"/></linearGradient><linearGradient id="prefix__paint4_linear_1288_1252" x1="45.296" y1="42.033" x2="84.585" y2="84.667" gradientUnits="userSpaceOnUse"><stop stop-color="#41D1FF"/><stop offset="1" stop-color="#BD34FE"/></linearGradient><linearGradient id="prefix__paint5_linear_1288_1252" x1="73.829" y1="34.598" x2="85.124" y2="75.213" gradientUnits="userSpaceOnUse"><stop stop-color="#FFEA83"/><stop offset=".083" stop-color="#FFDD35"/><stop offset="1" stop-color="#FFA800"/></linearGradient><clipPath id="prefix__clip0_1288_1252"><path fill="#fff" d="M0 0h160v192H0z"/></clipPath></defs></svg>
